<svg width="150" height="150" viewBox="0 0 260 247" fill="none" xmlns="http://www.w3.org/2000/svg">
<path d="M257.782 171.865C258.988 210.506 228.64 242.808 189.999 244.014L171.325 244.596C132.683 245.801 100.381 215.454 99.1761 176.813L95.9322 72.8234L184.573 70.0584C223.214 68.853 255.516 99.2007 256.721 137.842L257.782 171.865Z" fill="#A5A5A5" fill-opacity="0.25"/>
<path d="M75.5421 157.961C76.1812 178.447 60.0919 195.573 39.6058 196.212V196.212C19.1197 196.851 1.99439 180.762 1.35534 160.275L-0.00125776 116.787L33.8945 115.729C56.1466 115.035 74.7482 132.511 75.4424 154.764L75.5421 157.961Z" fill="#A5A5A5" fill-opacity="0.25"/>
<path d="M96.7317 159.979L94.6626 160.044C56.5336 161.233 24.6597 131.288 23.4703 93.1589L20.8684 9.74926L91.9762 7.53111C134.074 6.21792 169.265 39.2801 170.578 81.3775C171.891 123.475 138.829 158.666 96.7317 159.979Z" stroke="#A5A5A5" stroke-opacity="0.25" stroke-width="10"/>
</svg>
