<svg width="250" height="250" viewBox="0 0 274 273" fill="none" xmlns="http://www.w3.org/2000/svg">
<path d="M185.554 236.65L150.303 161.83M129.734 252.422L185.554 236.65L129.734 252.422ZM24.2575 94.483L58.3317 219.773L24.2575 94.483ZM149.601 21.0614L88.0673 48.5821L149.601 21.0614ZM24.2575 94.483L88.0673 48.5821L24.2575 94.483ZM196.626 45.1867L149.601 21.0614L196.626 45.1867ZM220.319 77.2259L196.626 45.1867L220.319 77.2259ZM255.936 93.7165L220.319 77.2259L255.936 93.7165ZM234.979 144.588L185.554 236.65L234.979 144.588ZM246.068 215.359L185.554 236.65L246.068 215.359ZM88.0673 48.5821L196.626 45.1867L88.0673 48.5821ZM75.8279 170.634L58.3317 219.773L75.8279 170.634ZM24.2575 94.483L75.8279 170.634L24.2575 94.483ZM129.734 252.422L75.8279 170.634L129.734 252.422ZM83.3148 105.318L144.338 98.9585L83.3148 105.318ZM196.626 45.1867L150.303 161.83L196.626 45.1867ZM234.979 144.588L220.319 77.2259L234.979 144.588ZM150.303 161.83L144.338 98.9585L196.626 45.1867L150.303 161.83Z" stroke="#00A3E0" stroke-width="1.50648" stroke-linecap="round" stroke-linejoin="round"/>
<path d="M150.271 161.307L129.731 252.423L58.3289 219.774" stroke="#00A3E0" stroke-width="1.50648" stroke-linecap="round" stroke-linejoin="round"/>
<path d="M143.474 108.018C148.35 108.482 152.688 104.802 153.165 99.7981C153.641 94.7943 150.074 90.3618 145.198 89.8978C140.322 89.4338 135.983 93.114 135.507 98.1177C135.031 103.122 138.598 107.554 143.474 108.018Z" stroke="#00A3E0" stroke-width="1.50648" stroke-linecap="round" stroke-linejoin="round"/>
<path d="M150.305 161.83L220.322 77.2257" stroke="#00A3E0" stroke-width="1.50648" stroke-linecap="round" stroke-linejoin="round"/>
<path d="M219.46 86.2856C224.336 86.7496 228.675 83.0694 229.151 78.0657C229.627 73.0619 226.06 68.6294 221.184 68.1654C216.308 67.7014 211.969 71.3816 211.493 76.3853C211.017 81.3891 214.584 85.8216 219.46 86.2856Z" stroke="#00A3E0" stroke-width="1.50648" stroke-linecap="round" stroke-linejoin="round"/>
<path d="M255.073 102.778C259.949 103.242 264.288 99.5616 264.764 94.5579C265.24 89.5541 261.674 85.1216 256.798 84.6576C251.922 84.1935 247.583 87.8737 247.107 92.8775C246.63 97.8813 250.197 102.314 255.073 102.778Z" stroke="#00A3E0" stroke-width="1.50648" stroke-linecap="round" stroke-linejoin="round"/>
<path d="M245.204 224.419C250.08 224.883 254.419 221.203 254.895 216.199C255.371 211.195 251.804 206.763 246.928 206.299C242.052 205.835 237.714 209.515 237.237 214.519C236.761 219.522 240.328 223.955 245.204 224.419Z" stroke="#00A3E0" stroke-width="1.50648" stroke-linecap="round" stroke-linejoin="round"/>
<path d="M195.765 54.2471C200.641 54.7111 204.979 51.0309 205.456 46.0271C205.932 41.0233 202.365 36.5908 197.489 36.1268C192.613 35.6628 188.274 39.343 187.798 44.3468C187.322 49.3505 190.889 53.7831 195.765 54.2471Z" stroke="#00A3E0" stroke-width="1.50648" stroke-linecap="round" stroke-linejoin="round"/>
<path d="M87.1708 57.6406C92.0468 58.1046 96.3856 54.4244 96.8618 49.4206C97.338 44.4169 93.7712 39.9844 88.8952 39.5203C84.0192 39.0563 79.6804 42.7365 79.2042 47.7403C78.7281 52.7441 82.2948 57.1766 87.1708 57.6406Z" stroke="#00A3E0" stroke-width="1.50648" stroke-linecap="round" stroke-linejoin="round"/>
<path d="M23.3603 103.92C28.2363 104.384 32.5751 100.704 33.0513 95.7004C33.5274 90.6967 29.9607 86.2641 25.0847 85.8001C20.2086 85.3361 15.8698 89.0163 15.3937 94.0201C14.9175 99.0239 18.4843 103.456 23.3603 103.92Z" stroke="#00A3E0" stroke-width="1.50648" stroke-linecap="round" stroke-linejoin="round"/>
<path d="M148.739 30.1226C153.615 30.5866 157.954 26.9064 158.43 21.9026C158.906 16.8988 155.34 12.4663 150.464 12.0023C145.588 11.5383 141.249 15.2185 140.773 20.2222C140.296 25.226 143.863 29.6585 148.739 30.1226Z" stroke="#00A3E0" stroke-width="1.50648" stroke-linecap="round" stroke-linejoin="round"/>
<path d="M128.909 261.08C133.785 261.544 138.124 257.864 138.6 252.86C139.076 247.856 135.509 243.424 130.633 242.96C125.757 242.496 121.419 246.176 120.943 251.18C120.466 256.184 124.033 260.616 128.909 261.08Z" stroke="#00A3E0" stroke-width="1.50648" stroke-linecap="round" stroke-linejoin="round"/>
<path d="M57.4716 228.834C62.3476 229.298 66.6864 225.618 67.1626 220.614C67.6388 215.611 64.072 211.178 59.196 210.714C54.32 210.25 49.9812 213.93 49.505 218.934C49.0288 223.938 52.5956 228.37 57.4716 228.834Z" stroke="#00A3E0" stroke-width="1.50648" stroke-linecap="round" stroke-linejoin="round"/>
<path d="M74.9677 179.695C79.8437 180.159 84.1825 176.479 84.6587 171.475C85.1348 166.472 81.5681 162.039 76.6921 161.575C71.8161 161.111 67.4773 164.791 67.0011 169.795C66.5249 174.799 70.0917 179.231 74.9677 179.695Z" stroke="#00A3E0" stroke-width="1.50648" stroke-linecap="round" stroke-linejoin="round"/>
<path d="M81.7045 122.25C94.0595 123.426 105.053 114.101 106.26 101.422C107.466 88.7433 98.4287 77.5121 86.0738 76.3364C73.7188 75.1606 62.725 84.4856 61.5185 97.1643C60.312 109.843 69.3496 121.074 81.7045 122.25Z" stroke="#00A3E0" stroke-width="1.50648" stroke-linecap="round" stroke-linejoin="round"/>
<path d="M97.2247 117.785C92.7584 121.179 87.2349 122.766 81.7159 122.24C76.1968 121.715 71.0717 119.115 67.3257 114.94C68.8478 112.04 71.169 109.661 73.9979 108.101C76.8268 106.542 80.0376 105.872 83.2273 106.176C86.4171 106.479 89.4439 107.743 91.928 109.808C94.412 111.872 96.2427 114.647 97.1905 117.782" stroke="#00A3E0" stroke-width="1.50648" stroke-linecap="round" stroke-linejoin="round"/>
<path d="M147.097 195.566C165.252 197.294 181.408 183.591 183.18 164.96C184.953 146.329 171.673 129.825 153.518 128.098C135.362 126.37 119.207 140.073 117.434 158.704C115.661 177.335 128.942 193.839 147.097 195.566Z" stroke="#00A3E0" stroke-width="1.50648" stroke-linecap="round" stroke-linejoin="round"/>
<path d="M139.806 160.043C139.532 162.921 140.384 165.788 142.174 168.013C143.964 170.237 146.545 171.637 149.35 171.903C152.156 172.17 154.955 171.283 157.132 169.436C159.309 167.589 160.686 164.934 160.96 162.056L161.477 156.629C161.751 153.75 160.899 150.883 159.109 148.659C157.319 146.434 154.738 145.035 151.933 144.768C149.127 144.501 146.328 145.388 144.151 147.235C141.974 149.082 140.596 151.737 140.323 154.616L139.806 160.043Z" stroke="#00A3E0" stroke-width="1.50648" stroke-linecap="round" stroke-linejoin="round"/>
<path d="M169.892 189.011C163.328 194 155.211 196.332 147.1 195.56C138.989 194.789 131.457 190.967 125.953 184.83C128.182 180.555 131.59 177.046 135.749 174.744C139.909 172.442 144.633 171.449 149.327 171.892C154.022 172.335 158.477 174.192 162.133 177.231C165.788 180.27 168.48 184.355 169.87 188.971" stroke="#00A3E0" stroke-width="1.50648" stroke-linecap="round" stroke-linejoin="round"/>
<path d="M140.541 153.222C141.024 151.056 142.141 149.09 143.74 147.587C145.34 146.083 147.346 145.115 149.491 144.81C151.636 144.505 153.818 144.879 155.744 145.881C157.67 146.883 159.249 148.466 160.27 150.419C157.528 152.673 154.245 154.125 150.77 154.619C147.295 155.112 143.76 154.629 140.541 153.222V153.222Z" stroke="#00A3E0" stroke-width="1.50648" stroke-linecap="round" stroke-linejoin="round"/>
<path d="M232.951 165.89C245.306 167.066 256.299 157.741 257.506 145.062C258.712 132.383 249.675 121.152 237.32 119.976C224.965 118.801 213.971 128.126 212.765 140.804C211.558 153.483 220.596 164.714 232.951 165.89Z" stroke="#00A3E0" stroke-width="1.50648" stroke-linecap="round" stroke-linejoin="round"/>
<path d="M227.99 141.719C227.804 143.678 228.384 145.63 229.602 147.143C230.82 148.657 232.577 149.61 234.486 149.791C236.395 149.973 238.3 149.369 239.782 148.112C241.264 146.855 242.201 145.048 242.388 143.089L242.739 139.396C242.926 137.436 242.346 135.485 241.128 133.971C239.91 132.457 238.153 131.505 236.244 131.323C234.334 131.142 232.429 131.746 230.947 133.003C229.466 134.259 228.528 136.066 228.342 138.025L227.99 141.719Z" stroke="#00A3E0" stroke-width="1.50648" stroke-linecap="round" stroke-linejoin="round"/>
<path d="M248.464 161.43C243.998 164.825 238.474 166.413 232.954 165.888C227.434 165.362 222.308 162.761 218.562 158.585C220.079 155.676 222.399 153.288 225.23 151.721C228.06 150.155 231.275 149.48 234.47 149.781C237.665 150.082 240.697 151.347 243.185 153.415C245.672 155.483 247.505 158.262 248.451 161.403" stroke="#00A3E0" stroke-width="1.50648" stroke-linecap="round" stroke-linejoin="round"/>
<path d="M228.491 137.076C228.822 135.605 229.582 134.269 230.67 133.248C231.758 132.227 233.122 131.569 234.58 131.362C236.038 131.154 237.52 131.407 238.83 132.087C240.14 132.767 241.214 133.842 241.911 135.167C240.045 136.7 237.812 137.687 235.449 138.023C233.086 138.359 230.681 138.032 228.491 137.076V137.076Z" stroke="#00A3E0" stroke-width="1.50648" stroke-linecap="round" stroke-linejoin="round"/>
<path d="M183.376 259.529C195.731 260.705 206.725 251.38 207.932 238.701C209.138 226.023 200.101 214.791 187.746 213.616C175.391 212.44 164.397 221.765 163.19 234.444C161.984 247.122 171.021 258.354 183.376 259.529Z" stroke="#00A3E0" stroke-width="1.50648" stroke-linecap="round" stroke-linejoin="round"/>
<path d="M178.416 235.358C178.229 237.317 178.809 239.268 180.027 240.782C181.245 242.296 183.002 243.249 184.912 243.43C186.821 243.612 188.726 243.008 190.208 241.751C191.69 240.494 192.627 238.687 192.813 236.728L193.165 233.031C193.351 231.072 192.772 229.121 191.554 227.607C190.336 226.093 188.579 225.141 186.669 224.959C184.76 224.777 182.855 225.381 181.373 226.638C179.891 227.895 178.954 229.702 178.768 231.661L178.416 235.358Z" stroke="#00A3E0" stroke-width="1.50648" stroke-linecap="round" stroke-linejoin="round"/>
<path d="M198.894 255.071C194.427 258.464 188.903 260.051 183.384 259.526C177.864 259 172.739 256.401 168.992 252.226C170.509 249.317 172.828 246.929 175.659 245.362C178.489 243.795 181.704 243.12 184.899 243.421C188.094 243.722 191.126 244.985 193.614 247.053C196.102 249.121 197.934 251.9 198.881 255.041" stroke="#00A3E0" stroke-width="1.50648" stroke-linecap="round" stroke-linejoin="round"/>
<path d="M178.917 230.713C179.248 229.241 180.008 227.905 181.096 226.884C182.184 225.863 183.547 225.205 185.005 224.998C186.463 224.79 187.946 225.044 189.256 225.724C190.566 226.404 191.64 227.478 192.336 228.804C190.471 230.336 188.238 231.323 185.875 231.659C183.512 231.995 181.107 231.668 178.917 230.713Z" stroke="#00A3E0" stroke-width="1.50648" stroke-linecap="round" stroke-linejoin="round"/>
<path d="M238.296 211.013L179.257 178.013M152.287 102.96L214.364 134.213L152.287 102.96ZM244.663 206.381L238.297 165.75L244.663 206.381ZM117.438 165.42L84.6423 169.531L117.438 165.42ZM252.479 102.115L244.348 121.848L252.479 102.115ZM97.677 117.432L124.855 140.361L97.677 117.432ZM85.7479 76.3041L87.3096 57.6497L85.7479 76.3041ZM100.418 83.5824L144.017 28.159L100.418 83.5824ZM61.4852 101.315L33.0058 96.0862L61.4852 101.315ZM81.3821 122.215L76.8655 161.594L81.3821 122.215Z" stroke="#00A3E0" stroke-width="1.50648" stroke-linecap="round" stroke-linejoin="round"/>
<path d="M76.745 98.0735C76.6315 99.0545 76.71 100.048 76.9757 100.995C77.2415 101.943 77.6892 102.826 78.2927 103.592C78.8961 104.358 79.6432 104.992 80.49 105.457C81.3369 105.922 82.2665 106.208 83.2245 106.299C84.1824 106.39 85.1494 106.284 86.0687 105.988C86.9881 105.691 87.8413 105.209 88.5784 104.57C89.3155 103.932 89.9217 103.15 90.3614 102.269C90.8011 101.389 91.0656 100.428 91.1392 99.4433L91.4907 95.7497C91.6041 94.7687 91.5257 93.7754 91.2599 92.8279C90.9941 91.8803 90.5464 90.9977 89.9429 90.2316C89.3395 89.4655 88.5924 88.8314 87.7456 88.3665C86.8987 87.9015 85.9691 87.6151 85.0112 87.5239C84.0532 87.4327 83.0863 87.5387 82.1669 87.8356C81.2476 88.1325 80.3943 88.6143 79.6572 89.2528C78.9201 89.8913 78.3139 90.6737 77.8742 91.5541C77.4345 92.4345 77.1701 93.3952 77.0965 94.3799L76.745 98.0735Z" stroke="#00A3E0" stroke-width="1.50648" stroke-linecap="round" stroke-linejoin="round"/>
<path d="M77.2451 93.4319C77.5752 91.96 78.3347 90.6241 79.4221 89.6027C80.5096 88.5813 81.8733 87.9229 83.3313 87.7154C84.7892 87.5079 86.272 87.7612 87.5818 88.4415C88.8915 89.1218 89.9657 90.1967 90.6612 91.5227C88.7969 93.0559 86.5643 94.0432 84.2016 94.3795C81.8388 94.7157 79.4345 94.3882 77.2451 93.4319V93.4319Z" stroke="#00A3E0" stroke-width="1.50648" stroke-linecap="round" stroke-linejoin="round"/>
</svg>
