<svg width="142" height="142" viewBox="0 0 142 142" fill="none" xmlns="http://www.w3.org/2000/svg">
<g filter="url(#filter0_f_195_2164)">
<path d="M95.6436 110.886L76.4764 79.3836M71.0719 120.18L95.6436 110.886L71.0719 120.18ZM16.5595 54.9837L37.3668 108.783L16.5595 54.9837ZM70.0992 17.3608L43.4486 32.0735L70.0992 17.3608ZM16.5595 54.9837L43.4486 32.0735L16.5595 54.9837ZM92.4102 26.0228L70.0992 17.3608L92.4102 26.0228ZM104.507 39.1522L92.4102 26.0228L104.507 39.1522ZM121.329 44.9273L104.507 39.1522L121.329 44.9273ZM114.038 68.2309L95.6436 110.886L114.038 68.2309ZM122.101 98.9626L95.6436 110.886L122.101 98.9626ZM43.4486 32.0735L92.4102 26.0228L43.4486 32.0735ZM43.166 86.3885L37.3668 108.783L43.166 86.3885ZM16.5595 54.9837L43.166 86.3885L16.5595 54.9837ZM71.0719 120.18L43.166 86.3885L71.0719 120.18ZM43.7411 57.2827L71.0719 51.9194L43.7411 57.2827ZM92.4102 26.0228L76.4764 79.3836L92.4102 26.0228ZM114.038 68.2309L104.507 39.1522L114.038 68.2309ZM76.4764 79.3836L71.0719 51.9194L92.4102 26.0228L76.4764 79.3836Z" stroke="#00A3E0" stroke-width="1.50648" stroke-linecap="round" stroke-linejoin="round"/>
<path d="M76.4404 79.1538L71.0714 120.18L37.3663 108.784" stroke="#00A3E0" stroke-width="1.50648" stroke-linecap="round" stroke-linejoin="round"/>
<path d="M71.0713 55.9491C73.297 55.9491 75.1013 54.1448 75.1013 51.9191C75.1013 49.6934 73.297 47.8892 71.0713 47.8892C68.8456 47.8892 67.0414 49.6934 67.0414 51.9191C67.0414 54.1448 68.8456 55.9491 71.0713 55.9491Z" stroke="#00A3E0" stroke-width="1.50648" stroke-linecap="round" stroke-linejoin="round"/>
<path d="M76.4767 79.3838L104.507 39.1523" stroke="#00A3E0" stroke-width="1.50648" stroke-linecap="round" stroke-linejoin="round"/>
<path d="M104.508 43.1815C106.733 43.1815 108.538 41.3772 108.538 39.1515C108.538 36.9259 106.733 35.1216 104.508 35.1216C102.282 35.1216 100.478 36.9259 100.478 39.1515C100.478 41.3772 102.282 43.1815 104.508 43.1815Z" stroke="#00A3E0" stroke-width="1.50648" stroke-linecap="round" stroke-linejoin="round"/>
<path d="M121.329 48.9574C123.555 48.9574 125.359 47.1531 125.359 44.9274C125.359 42.7017 123.555 40.8975 121.329 40.8975C119.103 40.8975 117.299 42.7017 117.299 44.9274C117.299 47.1531 119.103 48.9574 121.329 48.9574Z" stroke="#00A3E0" stroke-width="1.50648" stroke-linecap="round" stroke-linejoin="round"/>
<path d="M122.101 102.992C124.326 102.992 126.131 101.188 126.131 98.9621C126.131 96.7364 124.326 94.9321 122.101 94.9321C119.875 94.9321 118.071 96.7364 118.071 98.9621C118.071 101.188 119.875 102.992 122.101 102.992Z" stroke="#00A3E0" stroke-width="1.50648" stroke-linecap="round" stroke-linejoin="round"/>
<path d="M92.4108 30.0526C94.6365 30.0526 96.4407 28.2483 96.4407 26.0226C96.4407 23.7969 94.6365 21.9927 92.4108 21.9927C90.1851 21.9927 88.3808 23.7969 88.3808 26.0226C88.3808 28.2483 90.1851 30.0526 92.4108 30.0526Z" stroke="#00A3E0" stroke-width="1.50648" stroke-linecap="round" stroke-linejoin="round"/>
<path d="M43.4324 36.1039C45.6581 36.1039 47.4624 34.2996 47.4624 32.0739C47.4624 29.8482 45.6581 28.0439 43.4324 28.0439C41.2068 28.0439 39.4025 29.8482 39.4025 32.0739C39.4025 34.2996 41.2068 36.1039 43.4324 36.1039Z" stroke="#00A3E0" stroke-width="1.50648" stroke-linecap="round" stroke-linejoin="round"/>
<path d="M16.5597 59.1815C18.7854 59.1815 20.5896 57.3772 20.5896 55.1515C20.5896 52.9259 18.7854 51.1216 16.5597 51.1216C14.334 51.1216 12.5297 52.9259 12.5297 55.1515C12.5297 57.3772 14.334 59.1815 16.5597 59.1815Z" stroke="#00A3E0" stroke-width="1.50648" stroke-linecap="round" stroke-linejoin="round"/>
<path d="M70.0995 21.391C72.3252 21.391 74.1295 19.5867 74.1295 17.361C74.1295 15.1353 72.3252 13.3311 70.0995 13.3311C67.8739 13.3311 66.0696 15.1353 66.0696 17.361C66.0696 19.5867 67.8739 21.391 70.0995 21.391Z" stroke="#00A3E0" stroke-width="1.50648" stroke-linecap="round" stroke-linejoin="round"/>
<path d="M71.0713 124.032C73.297 124.032 75.1013 122.227 75.1013 120.002C75.1013 117.776 73.297 115.972 71.0713 115.972C68.8456 115.972 67.0414 117.776 67.0414 120.002C67.0414 122.227 68.8456 124.032 71.0713 124.032Z" stroke="#00A3E0" stroke-width="1.50648" stroke-linecap="round" stroke-linejoin="round"/>
<path d="M37.3673 112.814C39.593 112.814 41.3973 111.01 41.3973 108.784C41.3973 106.558 39.593 104.754 37.3673 104.754C35.1417 104.754 33.3374 106.558 33.3374 108.784C33.3374 111.01 35.1417 112.814 37.3673 112.814Z" stroke="#00A3E0" stroke-width="1.50648" stroke-linecap="round" stroke-linejoin="round"/>
<path d="M43.1666 90.4193C45.3922 90.4193 47.1965 88.615 47.1965 86.3893C47.1965 84.1637 45.3922 82.3594 43.1666 82.3594C40.9409 82.3594 39.1366 84.1637 39.1366 86.3893C39.1366 88.615 40.9409 90.4193 43.1666 90.4193Z" stroke="#00A3E0" stroke-width="1.50648" stroke-linecap="round" stroke-linejoin="round"/>
<path d="M43.7413 64.8136C49.3808 64.8136 53.9525 60.2418 53.9525 54.6023C53.9525 48.9628 49.3808 44.3911 43.7413 44.3911C38.1018 44.3911 33.5301 48.9628 33.5301 54.6023C33.5301 60.2418 38.1018 64.8136 43.7413 64.8136Z" stroke="#00A3E0" stroke-width="1.50648" stroke-linecap="round" stroke-linejoin="round"/>
<path d="M50.5692 62.195C48.6949 63.8783 46.2646 64.8094 43.7454 64.8094C41.2262 64.8094 38.7959 63.8783 36.9216 62.195C37.4853 60.8525 38.4329 59.7065 39.6455 58.9005C40.858 58.0945 42.2816 57.6646 43.7376 57.6646C45.1936 57.6646 46.6172 58.0945 47.8298 58.9005C49.0423 59.7065 49.9899 60.8525 50.5536 62.195" stroke="#00A3E0" stroke-width="1.50648" stroke-linecap="round" stroke-linejoin="round"/>
<path d="M76.4789 94.3892C84.766 94.3892 91.484 87.6712 91.484 79.384C91.484 71.0969 84.766 64.3789 76.4789 64.3789C68.1918 64.3789 61.4738 71.0969 61.4738 79.384C61.4738 87.6712 68.1918 94.3892 76.4789 94.3892Z" stroke="#00A3E0" stroke-width="1.50648" stroke-linecap="round" stroke-linejoin="round"/>
<path d="M71.6502 79.0359C71.6502 80.3164 72.1588 81.5444 73.0643 82.4499C73.9697 83.3553 75.1977 83.8639 76.4782 83.8639C77.7586 83.8639 78.9866 83.3553 79.8921 82.4499C80.7975 81.5444 81.3062 80.3164 81.3062 79.0359V76.6219C81.3062 75.3415 80.7975 74.1135 79.8921 73.208C78.9866 72.3026 77.7586 71.7939 76.4782 71.7939C75.1977 71.7939 73.9697 72.3026 73.0643 73.208C72.1588 74.1135 71.6502 75.3415 71.6502 76.6219V79.0359Z" stroke="#00A3E0" stroke-width="1.50648" stroke-linecap="round" stroke-linejoin="round"/>
<path d="M86.5073 90.5435C83.7532 93.0178 80.1816 94.3866 76.4793 94.3866C72.777 94.3866 69.2054 93.0178 66.4513 90.5435C67.2755 88.5657 68.6662 86.8758 70.4486 85.6865C72.2309 84.4972 74.3252 83.8617 76.4679 83.8599C78.6107 83.858 80.706 84.49 82.4904 85.6763C84.2748 86.8625 85.6684 88.5501 86.496 90.5265" stroke="#00A3E0" stroke-width="1.50648" stroke-linecap="round" stroke-linejoin="round"/>
<path d="M71.69 75.998C71.8157 75.0229 72.236 74.1094 72.8948 73.3797C73.5537 72.65 74.4196 72.1388 75.3768 71.9145C76.334 71.6901 77.3369 71.7634 78.2513 72.1244C79.1657 72.4854 79.9482 73.117 80.494 73.9347C79.3509 75.0436 77.9281 75.8212 76.3775 76.1846C74.8269 76.548 73.2068 76.4835 71.69 75.998V75.998Z" stroke="#00A3E0" stroke-width="1.50648" stroke-linecap="round" stroke-linejoin="round"/>
<path d="M114.038 77.7061C119.677 77.7061 124.249 73.1344 124.249 67.4949C124.249 61.8554 119.677 57.2837 114.038 57.2837C108.398 57.2837 103.827 61.8554 103.827 67.4949C103.827 73.1344 108.398 77.7061 114.038 77.7061Z" stroke="#00A3E0" stroke-width="1.50648" stroke-linecap="round" stroke-linejoin="round"/>
<path d="M110.753 67.2594C110.753 68.1309 111.099 68.9666 111.716 69.5829C112.332 70.1991 113.168 70.5453 114.039 70.5453C114.911 70.5453 115.746 70.1991 116.363 69.5829C116.979 68.9666 117.325 68.1309 117.325 67.2594V65.6164C117.325 64.745 116.979 63.9092 116.363 63.293C115.746 62.6768 114.911 62.3306 114.039 62.3306C113.168 62.3306 112.332 62.6768 111.716 63.293C111.099 63.9092 110.753 64.745 110.753 65.6164V67.2594Z" stroke="#00A3E0" stroke-width="1.50648" stroke-linecap="round" stroke-linejoin="round"/>
<path d="M120.864 75.0895C118.99 76.7734 116.559 77.705 114.04 77.705C111.52 77.705 109.09 76.7734 107.215 75.0895C107.776 73.7436 108.723 72.5937 109.936 71.7844C111.149 70.9752 112.574 70.5427 114.032 70.5415C115.491 70.5403 116.917 70.9704 118.131 71.7776C119.345 72.5848 120.294 73.7332 120.857 75.0781" stroke="#00A3E0" stroke-width="1.50648" stroke-linecap="round" stroke-linejoin="round"/>
<path d="M110.78 65.1919C110.866 64.5292 111.153 63.9087 111.601 63.413C112.049 62.9173 112.638 62.5699 113.288 62.4174C113.939 62.2648 114.62 62.3142 115.242 62.559C115.864 62.8038 116.396 63.2323 116.768 63.7875C115.99 64.5412 115.023 65.0699 113.968 65.3172C112.914 65.5645 111.812 65.5212 110.78 65.1919V65.1919Z" stroke="#00A3E0" stroke-width="1.50648" stroke-linecap="round" stroke-linejoin="round"/>
<path d="M95.6433 121.063C101.283 121.063 105.855 116.491 105.855 110.852C105.855 105.212 101.283 100.641 95.6433 100.641C90.0038 100.641 85.4321 105.212 85.4321 110.852C85.4321 116.491 90.0038 121.063 95.6433 121.063Z" stroke="#00A3E0" stroke-width="1.50648" stroke-linecap="round" stroke-linejoin="round"/>
<path d="M92.3587 110.616C92.3587 111.488 92.7049 112.324 93.3211 112.94C93.9374 113.556 94.7731 113.902 95.6446 113.902C96.5161 113.902 97.3519 113.556 97.9681 112.94C98.5843 112.324 98.9305 111.488 98.9305 110.616V108.972C98.9305 108.1 98.5843 107.265 97.9681 106.648C97.3519 106.032 96.5161 105.686 95.6446 105.686C94.7731 105.686 93.9374 106.032 93.3211 106.648C92.7049 107.265 92.3587 108.1 92.3587 108.972V110.616Z" stroke="#00A3E0" stroke-width="1.50648" stroke-linecap="round" stroke-linejoin="round"/>
<path d="M102.471 118.447C100.596 120.13 98.1656 121.061 95.6463 121.061C93.1269 121.061 90.6964 120.13 88.8218 118.447C89.3827 117.101 90.3292 115.951 91.5421 115.142C92.7551 114.332 94.1803 113.9 95.6385 113.898C97.0967 113.897 98.5227 114.327 99.7371 115.134C100.952 115.941 101.9 117.089 102.464 118.434" stroke="#00A3E0" stroke-width="1.50648" stroke-linecap="round" stroke-linejoin="round"/>
<path d="M92.3856 108.547C92.4719 107.885 92.7583 107.264 93.2064 106.768C93.6545 106.273 94.2431 105.925 94.8937 105.773C95.5442 105.62 96.2259 105.67 96.8476 105.914C97.4694 106.159 98.0018 106.588 98.3737 107.143C97.5959 107.897 96.6283 108.425 95.5738 108.673C94.5193 108.92 93.4174 108.877 92.3856 108.547Z" stroke="#00A3E0" stroke-width="1.50648" stroke-linecap="round" stroke-linejoin="round"/>
<path d="M118.398 97.3724L90.2707 85.3024M74.8395 53.3496L104.266 64.5221L74.8395 53.3496ZM121.079 95.0635L116.45 77.42L121.079 95.0635ZM61.7642 82.3445L47.1055 85.5324L61.7642 82.3445ZM120.126 48.7743L117.298 57.814L120.126 48.7743ZM50.7592 62.0201L64.0404 70.9874L50.7592 62.0201ZM43.5924 44.3908L43.4959 36.1022L43.5924 44.3908ZM50.5419 46.9837L67.8787 20.7236L50.5419 46.9837ZM33.6936 56.4338L20.5856 55.3234L33.6936 56.4338ZM43.5939 64.8118L43.246 82.3602L43.5939 64.8118Z" stroke="#00A3E0" stroke-width="1.50648" stroke-linecap="round" stroke-linejoin="round"/>
<path d="M40.4574 54.3648C40.4483 54.802 40.5266 55.2365 40.6876 55.6431C40.8486 56.0496 41.0891 56.4199 41.3951 56.7323C41.7011 57.0447 42.0663 57.2929 42.4694 57.4623C42.8725 57.6317 43.3053 57.719 43.7426 57.719C44.1798 57.719 44.6127 57.6317 45.0158 57.4623C45.4189 57.2929 45.7841 57.0447 46.0901 56.7323C46.396 56.4199 46.6366 56.0496 46.7976 55.6431C46.9586 55.2365 47.0369 54.802 47.0278 54.3648V52.7219C47.0369 52.2847 46.9586 51.8501 46.7976 51.4436C46.6366 51.0371 46.396 50.6667 46.0901 50.3544C45.7841 50.042 45.4189 49.7938 45.0158 49.6244C44.6127 49.4549 44.1798 49.3677 43.7426 49.3677C43.3053 49.3677 42.8725 49.4549 42.4694 49.6244C42.0663 49.7938 41.7011 50.042 41.3951 50.3544C41.0891 50.6667 40.8486 51.0371 40.6876 51.4436C40.5266 51.8501 40.4483 52.2847 40.4574 52.7219V54.3648Z" stroke="#00A3E0" stroke-width="1.50648" stroke-linecap="round" stroke-linejoin="round"/>
<path d="M40.4836 52.2976C40.5695 51.6349 40.8556 51.0141 41.3035 50.5183C41.7515 50.0224 42.3401 49.675 42.9906 49.5224C43.6412 49.3697 44.3229 49.4192 44.9446 49.6641C45.5664 49.9091 46.0986 50.3378 46.4703 50.8932C45.693 51.6472 44.7255 52.1761 43.6712 52.4234C42.6168 52.6708 41.5151 52.6273 40.4836 52.2976V52.2976Z" stroke="#00A3E0" stroke-width="1.50648" stroke-linecap="round" stroke-linejoin="round"/>
</g>
<defs>
<filter id="filter0_f_195_2164" x="-6" y="-6" width="154" height="154" filterUnits="userSpaceOnUse" color-interpolation-filters="sRGB">
<feFlood flood-opacity="0" result="BackgroundImageFix"/>
<feBlend mode="normal" in="SourceGraphic" in2="BackgroundImageFix" result="shape"/>
<feGaussianBlur stdDeviation="3" result="effect1_foregroundBlur_195_2164"/>
</filter>
</defs>
</svg>
