<svg width="98" height="98" viewBox="0 0 98 98" fill="none" xmlns="http://www.w3.org/2000/svg">
<g filter="url(#filter0_f_195_2236)">
<path d="M66.0075 76.5272L52.7795 54.7859M49.0496 82.9413L66.0075 76.5272L49.0496 82.9413ZM11.4284 37.9465L25.7883 75.0758L11.4284 37.9465ZM48.3783 11.9814L29.9857 22.1352L48.3783 11.9814ZM11.4284 37.9465L29.9857 22.1352L11.4284 37.9465ZM63.7761 17.9594L48.3783 11.9814L63.7761 17.9594ZM72.1247 27.0205L63.7761 17.9594L72.1247 27.0205ZM83.7338 31.0062L72.1247 27.0205L83.7338 31.0062ZM78.7024 47.089L66.0075 76.5272L78.7024 47.089ZM84.2669 68.2981L66.0075 76.5272L84.2669 68.2981ZM29.9857 22.1352L63.7761 17.9594L29.9857 22.1352ZM29.7906 59.6202L25.7883 75.0758L29.7906 59.6202ZM11.4284 37.9465L29.7906 59.6202L11.4284 37.9465ZM49.0496 82.9413L29.7906 59.6202L49.0496 82.9413ZM30.1875 39.5332L49.0496 35.8317L30.1875 39.5332ZM63.7761 17.9594L52.7795 54.7859L63.7761 17.9594ZM78.7024 47.089L72.1247 27.0205L78.7024 47.089ZM52.7795 54.7859L49.0496 35.8317L63.7761 17.9594L52.7795 54.7859Z" stroke="#00A3E0" stroke-width="1.50648" stroke-linecap="round" stroke-linejoin="round"/>
<path d="M52.7547 54.6274L49.0493 82.9416L25.788 75.0761" stroke="#00A3E0" stroke-width="1.50648" stroke-linecap="round" stroke-linejoin="round"/>
<path d="M49.0492 38.6128C50.5853 38.6128 51.8305 37.3676 51.8305 35.8315C51.8305 34.2955 50.5853 33.0503 49.0492 33.0503C47.5132 33.0503 46.268 34.2955 46.268 35.8315C46.268 37.3676 47.5132 38.6128 49.0492 38.6128Z" stroke="#00A3E0" stroke-width="1.50648" stroke-linecap="round" stroke-linejoin="round"/>
<path d="M52.7797 54.7859L72.1249 27.0205" stroke="#00A3E0" stroke-width="1.50648" stroke-linecap="round" stroke-linejoin="round"/>
<path d="M72.1249 29.8012C73.661 29.8012 74.9062 28.556 74.9062 27.02C74.9062 25.484 73.661 24.2388 72.1249 24.2388C70.5889 24.2388 69.3437 25.484 69.3437 27.02C69.3437 28.556 70.5889 29.8012 72.1249 29.8012Z" stroke="#00A3E0" stroke-width="1.50648" stroke-linecap="round" stroke-linejoin="round"/>
<path d="M83.7341 33.7876C85.2701 33.7876 86.5153 32.5424 86.5153 31.0063C86.5153 29.4703 85.2701 28.2251 83.7341 28.2251C82.1981 28.2251 80.9529 29.4703 80.9529 31.0063C80.9529 32.5424 82.1981 33.7876 83.7341 33.7876Z" stroke="#00A3E0" stroke-width="1.50648" stroke-linecap="round" stroke-linejoin="round"/>
<path d="M84.2667 71.0791C85.8027 71.0791 87.0479 69.8339 87.0479 68.2978C87.0479 66.7618 85.8027 65.5166 84.2667 65.5166C82.7306 65.5166 81.4854 66.7618 81.4854 68.2978C81.4854 69.8339 82.7306 71.0791 84.2667 71.0791Z" stroke="#00A3E0" stroke-width="1.50648" stroke-linecap="round" stroke-linejoin="round"/>
<path d="M63.7764 20.7407C65.3125 20.7407 66.5577 19.4955 66.5577 17.9595C66.5577 16.4234 65.3125 15.1782 63.7764 15.1782C62.2404 15.1782 60.9952 16.4234 60.9952 17.9595C60.9952 19.4955 62.2404 20.7407 63.7764 20.7407Z" stroke="#00A3E0" stroke-width="1.50648" stroke-linecap="round" stroke-linejoin="round"/>
<path d="M29.9745 24.9165C31.5105 24.9165 32.7557 23.6713 32.7557 22.1352C32.7557 20.5992 31.5105 19.354 29.9745 19.354C28.4385 19.354 27.1933 20.5992 27.1933 22.1352C27.1933 23.6713 28.4385 24.9165 29.9745 24.9165Z" stroke="#00A3E0" stroke-width="1.50648" stroke-linecap="round" stroke-linejoin="round"/>
<path d="M11.4285 40.8432C12.9645 40.8432 14.2097 39.598 14.2097 38.062C14.2097 36.526 12.9645 35.2808 11.4285 35.2808C9.89247 35.2808 8.64726 36.526 8.64726 38.062C8.64726 39.598 9.89247 40.8432 11.4285 40.8432Z" stroke="#00A3E0" stroke-width="1.50648" stroke-linecap="round" stroke-linejoin="round"/>
<path d="M48.3786 14.7627C49.9146 14.7627 51.1598 13.5175 51.1598 11.9814C51.1598 10.4454 49.9146 9.2002 48.3786 9.2002C46.8425 9.2002 45.5973 10.4454 45.5973 11.9814C45.5973 13.5175 46.8425 14.7627 48.3786 14.7627Z" stroke="#00A3E0" stroke-width="1.50648" stroke-linecap="round" stroke-linejoin="round"/>
<path d="M49.0492 85.5991C50.5853 85.5991 51.8305 84.3539 51.8305 82.8179C51.8305 81.2818 50.5853 80.0366 49.0492 80.0366C47.5132 80.0366 46.268 81.2818 46.268 82.8179C46.268 84.3539 47.5132 85.5991 49.0492 85.5991Z" stroke="#00A3E0" stroke-width="1.50648" stroke-linecap="round" stroke-linejoin="round"/>
<path d="M25.7887 77.8574C27.3248 77.8574 28.57 76.6122 28.57 75.0762C28.57 73.5401 27.3248 72.2949 25.7887 72.2949C24.2527 72.2949 23.0075 73.5401 23.0075 75.0762C23.0075 76.6122 24.2527 77.8574 25.7887 77.8574Z" stroke="#00A3E0" stroke-width="1.50648" stroke-linecap="round" stroke-linejoin="round"/>
<path d="M29.791 62.4018C31.327 62.4018 32.5722 61.1566 32.5722 59.6206C32.5722 58.0846 31.327 56.8394 29.791 56.8394C28.255 56.8394 27.0098 58.0846 27.0098 59.6206C27.0098 61.1566 28.255 62.4018 29.791 62.4018Z" stroke="#00A3E0" stroke-width="1.50648" stroke-linecap="round" stroke-linejoin="round"/>
<path d="M30.1877 44.7306C34.0797 44.7306 37.2348 41.5755 37.2348 37.6834C37.2348 33.7914 34.0797 30.6362 30.1877 30.6362C26.2956 30.6362 23.1405 33.7914 23.1405 37.6834C23.1405 41.5755 26.2956 44.7306 30.1877 44.7306Z" stroke="#00A3E0" stroke-width="1.50648" stroke-linecap="round" stroke-linejoin="round"/>
<path d="M34.8999 42.923C33.6064 44.0847 31.9291 44.7273 30.1905 44.7273C28.4519 44.7273 26.7746 44.0847 25.4811 42.923C25.8701 41.9966 26.5241 41.2056 27.361 40.6494C28.1978 40.0931 29.1803 39.7964 30.1851 39.7964C31.19 39.7964 32.1724 40.0931 33.0093 40.6494C33.8461 41.2056 34.5001 41.9966 34.8891 42.923" stroke="#00A3E0" stroke-width="1.50648" stroke-linecap="round" stroke-linejoin="round"/>
<path d="M52.7812 65.142C58.5005 65.142 63.1369 60.5056 63.1369 54.7863C63.1369 49.067 58.5005 44.4307 52.7812 44.4307C47.0619 44.4307 42.4256 49.067 42.4256 54.7863C42.4256 60.5056 47.0619 65.142 52.7812 65.142Z" stroke="#00A3E0" stroke-width="1.50648" stroke-linecap="round" stroke-linejoin="round"/>
<path d="M49.4487 54.5459C49.4487 55.4296 49.7998 56.2771 50.4246 56.9019C51.0495 57.5268 51.897 57.8779 52.7807 57.8779C53.6644 57.8779 54.5119 57.5268 55.1368 56.9019C55.7616 56.2771 56.1127 55.4296 56.1127 54.5459V52.8798C56.1127 51.9961 55.7616 51.1486 55.1368 50.5238C54.5119 49.8989 53.6644 49.5479 52.7807 49.5479C51.897 49.5479 51.0495 49.8989 50.4246 50.5238C49.7998 51.1486 49.4487 51.9961 49.4487 52.8798V54.5459Z" stroke="#00A3E0" stroke-width="1.50648" stroke-linecap="round" stroke-linejoin="round"/>
<path d="M59.7023 62.4877C57.8015 64.1953 55.3366 65.1399 52.7815 65.1399C50.2264 65.1399 47.7615 64.1953 45.8607 62.4877C46.4295 61.1227 47.3894 59.9564 48.6195 59.1356C49.8495 58.3149 51.2949 57.8763 52.7737 57.875C54.2524 57.8737 55.6985 58.3099 56.93 59.1286C58.1615 59.9473 59.1233 61.1119 59.6944 62.4759" stroke="#00A3E0" stroke-width="1.50648" stroke-linecap="round" stroke-linejoin="round"/>
<path d="M49.4762 52.4495C49.5629 51.7766 49.853 51.1462 50.3077 50.6426C50.7624 50.139 51.36 49.7862 52.0206 49.6314C52.6812 49.4765 53.3733 49.5271 54.0044 49.7762C54.6355 50.0254 55.1755 50.4613 55.5522 51.0256C54.7633 51.7909 53.7814 52.3276 52.7112 52.5784C51.6411 52.8291 50.523 52.7846 49.4762 52.4495V52.4495Z" stroke="#00A3E0" stroke-width="1.50648" stroke-linecap="round" stroke-linejoin="round"/>
<path d="M78.7021 53.6281C82.5942 53.6281 85.7493 50.4729 85.7493 46.5809C85.7493 42.6888 82.5942 39.5337 78.7021 39.5337C74.8101 39.5337 71.6549 42.6888 71.6549 46.5809C71.6549 50.4729 74.8101 53.6281 78.7021 53.6281Z" stroke="#00A3E0" stroke-width="1.50648" stroke-linecap="round" stroke-linejoin="round"/>
<path d="M76.4353 46.4182C76.4353 47.0196 76.6742 47.5964 77.0995 48.0217C77.5248 48.447 78.1016 48.6859 78.703 48.6859C79.3044 48.6859 79.8812 48.447 80.3065 48.0217C80.7318 47.5964 80.9707 47.0196 80.9707 46.4182V45.2843C80.9707 44.6829 80.7318 44.1061 80.3065 43.6808C79.8812 43.2555 79.3044 43.0166 78.703 43.0166C78.1016 43.0166 77.5248 43.2555 77.0995 43.6808C76.6742 44.1061 76.4353 44.6829 76.4353 45.2843V46.4182Z" stroke="#00A3E0" stroke-width="1.50648" stroke-linecap="round" stroke-linejoin="round"/>
<path d="M83.4134 51.8219C82.1199 52.984 80.4424 53.6269 78.7035 53.6269C76.9646 53.6269 75.2871 52.984 73.9936 51.8219C74.3809 50.893 75.0342 50.0994 75.8713 49.5409C76.7085 48.9824 77.6921 48.6839 78.6984 48.6831C79.7048 48.6823 80.6889 48.9791 81.527 49.5362C82.3651 50.0933 83.0197 50.8858 83.4085 51.814" stroke="#00A3E0" stroke-width="1.50648" stroke-linecap="round" stroke-linejoin="round"/>
<path d="M76.4538 44.9913C76.5134 44.534 76.711 44.1057 77.0203 43.7636C77.3295 43.4215 77.7357 43.1818 78.1847 43.0765C78.6337 42.9712 79.1041 43.0053 79.5333 43.1742C79.9624 43.3432 80.3298 43.6389 80.5865 44.0221C80.0497 44.5423 79.3818 44.9071 78.6541 45.0778C77.9263 45.2485 77.1659 45.2186 76.4538 44.9913V44.9913Z" stroke="#00A3E0" stroke-width="1.50648" stroke-linecap="round" stroke-linejoin="round"/>
<path d="M66.0074 83.5504C69.8994 83.5504 73.0545 80.3953 73.0545 76.5032C73.0545 72.6112 69.8994 69.4561 66.0074 69.4561C62.1153 69.4561 58.9602 72.6112 58.9602 76.5032C58.9602 80.3953 62.1153 83.5504 66.0074 83.5504Z" stroke="#00A3E0" stroke-width="1.50648" stroke-linecap="round" stroke-linejoin="round"/>
<path d="M63.7405 76.3405C63.7405 76.942 63.9794 77.5188 64.4047 77.9441C64.83 78.3693 65.4068 78.6083 66.0082 78.6083C66.6097 78.6083 67.1865 78.3693 67.6118 77.9441C68.037 77.5188 68.276 76.942 68.276 76.3405V75.2057C68.276 74.6043 68.037 74.0275 67.6118 73.6022C67.1865 73.1769 66.6097 72.938 66.0082 72.938C65.4068 72.938 64.83 73.1769 64.4047 73.6022C63.9794 74.0275 63.7405 74.6043 63.7405 75.2057V76.3405Z" stroke="#00A3E0" stroke-width="1.50648" stroke-linecap="round" stroke-linejoin="round"/>
<path d="M70.7193 81.7452C69.4255 82.9068 67.7481 83.5493 66.0094 83.5493C64.2707 83.5493 62.5933 82.9068 61.2995 81.7452C61.6867 80.8163 62.3399 80.0226 63.177 79.464C64.0141 78.9054 64.9977 78.6069 66.004 78.606C67.0104 78.605 67.9945 78.9017 68.8327 79.4587C69.6708 80.0157 70.3255 80.8082 70.7144 81.7364" stroke="#00A3E0" stroke-width="1.50648" stroke-linecap="round" stroke-linejoin="round"/>
<path d="M63.7591 74.9127C63.8187 74.4554 64.0163 74.0271 64.3255 73.685C64.6348 73.3429 65.041 73.1032 65.49 72.9979C65.939 72.8926 66.4094 72.9267 66.8385 73.0956C67.2676 73.2646 67.635 73.5603 67.8917 73.9435C67.3549 74.4637 66.6871 74.8285 65.9593 74.9992C65.2316 75.1699 64.4712 75.14 63.7591 74.9127Z" stroke="#00A3E0" stroke-width="1.50648" stroke-linecap="round" stroke-linejoin="round"/>
<path d="M81.7113 67.2007L62.2995 58.8707M51.6498 36.8187L71.9584 44.5294L51.6498 36.8187ZM83.5616 65.6072L80.3668 53.4307L83.5616 65.6072ZM42.626 56.8293L32.5094 59.0294L42.626 56.8293ZM82.904 33.6612L80.9518 39.8998L82.904 33.6612ZM35.031 42.8026L44.1969 48.9913L35.031 42.8026ZM30.0849 30.6359L30.0183 24.9156L30.0849 30.6359ZM34.881 32.4254L46.8459 14.3022L34.881 32.4254ZM23.2533 38.9473L14.207 38.1809L23.2533 38.9473ZM30.0859 44.7293L29.8458 56.8401L30.0859 44.7293Z" stroke="#00A3E0" stroke-width="1.50648" stroke-linecap="round" stroke-linejoin="round"/>
<path d="M27.9213 37.519C27.915 37.8207 27.969 38.1207 28.0802 38.4012C28.1913 38.6818 28.3573 38.9373 28.5684 39.1529C28.7796 39.3685 29.0317 39.5398 29.3098 39.6567C29.588 39.7737 29.8868 39.8339 30.1885 39.8339C30.4903 39.8339 30.789 39.7737 31.0672 39.6567C31.3454 39.5398 31.5975 39.3685 31.8086 39.1529C32.0198 38.9373 32.1858 38.6818 32.2969 38.4012C32.408 38.1207 32.462 37.8207 32.4558 37.519V36.3852C32.462 36.0835 32.408 35.7835 32.2969 35.503C32.1858 35.2224 32.0198 34.9669 31.8086 34.7513C31.5975 34.5357 31.3454 34.3644 31.0672 34.2475C30.789 34.1305 30.4903 34.0703 30.1885 34.0703C29.8868 34.0703 29.588 34.1305 29.3098 34.2475C29.0317 34.3644 28.7796 34.5357 28.5684 34.7513C28.3573 34.9669 28.1913 35.2224 28.0802 35.503C27.969 35.7835 27.915 36.0835 27.9213 36.3852V37.519Z" stroke="#00A3E0" stroke-width="1.50648" stroke-linecap="round" stroke-linejoin="round"/>
<path d="M27.9394 36.0924C27.9987 35.635 28.1961 35.2066 28.5052 34.8644C28.8144 34.5222 29.2206 34.2824 29.6696 34.1771C30.1186 34.0718 30.589 34.1059 31.0181 34.2749C31.4472 34.444 31.8145 34.7399 32.071 35.1232C31.5346 35.6436 30.8669 36.0086 30.1393 36.1793C29.4116 36.3499 28.6513 36.3199 27.9394 36.0924V36.0924Z" stroke="#00A3E0" stroke-width="1.50648" stroke-linecap="round" stroke-linejoin="round"/>
</g>
<defs>
<filter id="filter0_f_195_2236" x="-4" y="-4" width="106" height="106" filterUnits="userSpaceOnUse" color-interpolation-filters="sRGB">
<feFlood flood-opacity="0" result="BackgroundImageFix"/>
<feBlend mode="normal" in="SourceGraphic" in2="BackgroundImageFix" result="shape"/>
<feGaussianBlur stdDeviation="2" result="effect1_foregroundBlur_195_2236"/>
</filter>
</defs>
</svg>
