<svg width="66" height="66" viewBox="0 0 66 66" fill="none" xmlns="http://www.w3.org/2000/svg">
<path d="M22 8.25H19.25C17.7913 8.25 16.3924 8.82946 15.3609 9.86091C14.3295 10.8924 13.75 12.2913 13.75 13.75V27.5C13.75 28.9587 13.1705 30.3576 12.1391 31.3891C11.1076 32.4205 9.70869 33 8.25 33C9.70869 33 11.1076 33.5795 12.1391 34.6109C13.1705 35.6424 13.75 37.0413 13.75 38.5V52.25C13.75 55.275 16.225 57.75 19.25 57.75H22M44 57.75H46.75C48.2087 57.75 49.6076 57.1705 50.6391 56.1391C51.6705 55.1076 52.25 53.7087 52.25 52.25V38.5C52.25 35.475 54.725 33 57.75 33C56.2913 33 54.8924 32.4205 53.8609 31.3891C52.8295 30.3576 52.25 28.9587 52.25 27.5V13.75C52.25 12.2913 51.6705 10.8924 50.6391 9.86091C49.6076 8.82946 48.2087 8.25 46.75 8.25H44" stroke="#00A3E0" stroke-width="2" stroke-linecap="round" stroke-linejoin="round"/>
</svg>
