<svg width="230" height="226" viewBox="0 0 230 226" fill="none" xmlns="http://www.w3.org/2000/svg">
<rect x="0.255" y="0.255" width="229.49" height="225.49" stroke="black" stroke-width="0.51"/>
<path d="M148.833 75.3334C148.833 93.5768 133.76 108.5 115 108.5C96.2396 108.5 81.1666 93.5768 81.1666 75.3334C81.1666 57.0901 96.2396 42.1667 115 42.1667C133.76 42.1667 148.833 57.0901 148.833 75.3334Z" stroke="#33363F" stroke-width="9" stroke-linecap="round"/>
<path d="M141.898 72.9047C145.101 67.4544 150.39 63.455 156.621 61.8143C162.854 60.1732 169.493 61.0344 175.071 64.1988C180.646 67.3617 184.692 72.557 186.346 78.6222C187.999 84.6854 187.136 91.1481 183.935 96.5953C180.733 102.046 175.443 106.045 169.212 107.686C162.979 109.327 156.34 108.466 150.762 105.301C145.187 102.138 141.142 96.943 139.488 90.8778C137.834 84.8146 138.698 78.3519 141.898 72.9047L141.898 72.9047Z" stroke="#33363F" stroke-width="9"/>
<path d="M46.065 72.9047C49.2674 67.4544 54.5566 63.455 60.7881 61.8143C67.0211 60.1732 73.66 61.0344 79.2379 64.1988C84.8132 67.3617 88.8583 72.557 90.5123 78.6222C92.1657 84.6854 91.3024 91.1481 88.1018 96.5953C84.8994 102.046 79.6101 106.045 73.3787 107.686C67.1456 109.327 60.5067 108.466 54.9288 105.301C49.3536 102.138 45.3084 96.943 43.6545 90.8778C42.0011 84.8146 42.8644 78.3519 46.065 72.9047L46.065 72.9047Z" stroke="#33363F" stroke-width="9"/>
<path d="M161.782 169.5L157.374 170.403L158.111 174H161.782V169.5ZM201.074 168.397L205.504 167.608V167.608L201.074 168.397ZM141.65 138.524L138.958 134.918L133.628 138.896L139.303 142.364L141.65 138.524ZM200.115 165H161.782V174H200.115V165ZM196.643 169.185C196.218 166.796 198.149 165 200.115 165V174C203.285 174 206.14 171.183 205.504 167.608L196.643 169.185ZM162.917 136.333C176.14 136.333 184.133 142.871 189.139 150.3C194.265 157.904 196.135 166.33 196.643 169.185L205.504 167.608C204.906 164.25 202.752 154.393 196.603 145.27C190.335 135.97 179.802 127.333 162.917 127.333V136.333ZM144.341 142.13C148.896 138.731 154.888 136.333 162.917 136.333V127.333C152.93 127.333 145.053 130.369 138.958 134.918L144.341 142.13ZM139.303 142.364C151.007 149.516 155.599 161.744 157.374 170.403L166.191 168.596C164.207 158.919 158.815 143.741 143.996 134.684L139.303 142.364Z" fill="#33363F"/>
<path d="M88.3505 138.524L90.697 142.364L96.372 138.896L91.042 134.918L88.3505 138.524ZM28.9263 168.397L24.496 167.608V167.608L28.9263 168.397ZM68.2175 169.5V174H71.8888L72.6259 170.403L68.2175 169.5ZM67.0835 136.333C75.1125 136.333 81.1044 138.731 85.6589 142.13L91.042 134.918C84.9468 130.369 77.0702 127.333 67.0835 127.333V136.333ZM33.3567 169.185C33.865 166.33 35.735 157.904 40.8606 150.3C45.8676 142.871 53.8602 136.333 67.0835 136.333V127.333C50.1987 127.333 39.6656 135.97 33.3976 145.27C27.2482 154.393 25.0937 164.25 24.496 167.608L33.3567 169.185ZM29.8853 165C31.8509 165 33.7819 166.796 33.3567 169.185L24.496 167.608C23.8597 171.183 26.7149 174 29.8853 174V165ZM68.2175 165H29.8853V174H68.2175V165ZM72.6259 170.403C74.4007 161.744 78.9928 149.516 90.697 142.364L86.0039 134.684C71.1848 143.74 65.7928 158.919 63.8092 168.596L72.6259 170.403Z" fill="#33363F"/>
<path d="M115 131.833C158.812 131.833 162.565 171.196 162.887 177.939C162.913 178.491 162.469 178.917 161.917 178.917H68.0834C67.5311 178.917 67.0872 178.491 67.1135 177.939C67.435 171.196 71.1878 131.833 115 131.833Z" stroke="#33363F" stroke-width="9" stroke-linecap="round"/>
</svg>
