<svg width="65" height="65" viewBox="0 0 65 65" fill="none" xmlns="http://www.w3.org/2000/svg">
<path d="M48.7494 56.875C48.7494 51.1286 46.4666 45.6176 42.4033 41.5544C38.34 37.4911 32.829 35.2083 27.0827 35.2083M27.0827 35.2083C21.3363 35.2083 15.8253 37.4911 11.762 41.5544C7.69875 45.6176 5.41602 51.1286 5.41602 56.875M27.0827 35.2083C34.5615 35.2083 40.6244 29.1455 40.6244 21.6667C40.6244 14.1878 34.5615 8.125 27.0827 8.125C19.6038 8.125 13.541 14.1878 13.541 21.6667C13.541 29.1455 19.6038 35.2083 27.0827 35.2083ZM59.5827 54.1667C59.5827 45.0396 54.166 36.5625 48.7494 32.5C50.5299 31.1642 51.9536 29.41 52.8946 27.3928C53.8357 25.3756 54.2649 23.1575 54.1444 20.9349C54.0239 18.7122 53.3574 16.5536 52.2038 14.6499C51.0502 12.7463 49.4451 11.1563 47.5306 10.0208" stroke="#00A3E0" stroke-width="2" stroke-linecap="round" stroke-linejoin="round"/>
</svg>
